<?xml version="1.0" encoding="UTF-8"?>
<svg id="Layer_2" data-name="Layer 2" xmlns="http://www.w3.org/2000/svg" xmlns:xlink="http://www.w3.org/1999/xlink" viewBox="0 0 341 135">
  <defs>
    <style>
      .cls-1 {
        fill: #fff;
        filter: url(#drop-shadow-1);
        stroke: #d8d8d8;
        stroke-miterlimit: 10;
      }

      .cls-2 {
        fill: #5f60b3;
      }

      .cls-3 {
        fill: none;
      }
    </style>
    <filter id="drop-shadow-1" x="1" y=".51" width="339" height="134" filterUnits="userSpaceOnUse">
      <feOffset dx="7" dy="7"/>
      <feGaussianBlur result="blur" stdDeviation="5"/>
      <feFlood flood-color="#000" flood-opacity=".2"/>
      <feComposite in2="blur" operator="in"/>
      <feComposite in="SourceGraphic"/>
    </filter>
  </defs>
  <g id="Layer_1-2" data-name="Layer 1">
    <rect class="cls-3" width="341" height="135"/>
    <rect class="cls-3" y="0" width="341" height="135"/>
    <rect class="cls-1" x="9.97" y="9.44" width="307.23" height="102.42" rx="6.26" ry="6.26"/>
    <g>
      <path class="cls-2" d="M91.43,53.82v-17.17h12.98v3.19h-8.98v13.98h-4ZM95.11,47.56v-3.19h8.24v3.19h-8.24Z"/>
      <path class="cls-2" d="M106.62,53.82v-13.2h3.66v3.75l-.52-1.1c.39-.93,1.02-1.64,1.89-2.12.87-.48,1.92-.72,3.17-.72v3.56c-.15-.03-.29-.06-.43-.07-.14-.02-.27-.02-.41-.02-1.08,0-1.94.3-2.58.91-.64.61-.96,1.54-.96,2.8v6.23h-3.83Z"/>
      <path class="cls-2" d="M123.25,54.01c-1.39,0-2.63-.29-3.72-.88s-1.94-1.39-2.56-2.42c-.62-1.02-.93-2.19-.93-3.5s.31-2.5.93-3.52c.62-1.02,1.48-1.82,2.56-2.4,1.09-.58,2.33-.87,3.72-.87s2.66.29,3.75.87c1.09.58,1.95,1.38,2.58,2.4.62,1.02.93,2.2.93,3.52s-.31,2.49-.93,3.51c-.62,1.01-1.48,1.82-2.58,2.4-1.1.59-2.35.88-3.75.88ZM123.25,50.87c.65,0,1.23-.14,1.73-.43s.9-.71,1.2-1.26c.3-.56.45-1.21.45-1.96s-.15-1.42-.45-1.96c-.3-.54-.7-.95-1.2-1.24s-1.07-.43-1.71-.43-1.21.14-1.72.43-.91.7-1.21,1.24c-.3.54-.45,1.19-.45,1.96s.15,1.41.45,1.96c.3.56.71.98,1.21,1.26s1.07.43,1.69.43Z"/>
      <path class="cls-2" d="M133.06,53.82v-13.2h3.66v3.58l-.69-1.03c.44-.9,1.09-1.58,1.94-2.05.85-.47,1.81-.7,2.87-.7,1.21,0,2.27.31,3.19.92.92.61,1.52,1.55,1.82,2.81l-1.35-.37c.44-1.01,1.14-1.83,2.11-2.44.96-.61,2.08-.92,3.36-.92,1.05,0,1.97.21,2.78.63s1.44,1.05,1.9,1.91c.46.86.69,1.96.69,3.3v7.56h-3.83v-6.97c0-1.06-.22-1.85-.65-2.35-.43-.51-1.04-.76-1.83-.76-.57,0-1.08.13-1.52.38-.44.25-.78.63-1.02,1.13s-.36,1.15-.36,1.95v6.62h-3.83v-6.97c0-1.06-.22-1.85-.65-2.35s-1.06-.76-1.88-.76c-.56,0-1.05.13-1.5.38-.44.25-.79.63-1.03,1.13-.25.5-.37,1.15-.37,1.95v6.62h-3.83Z"/>
      <path class="cls-2" d="M171.68,54.11c-1.37,0-2.69-.18-3.96-.55s-2.29-.85-3.05-1.43l1.35-2.99c.72.52,1.59.95,2.6,1.29,1.01.33,2.04.5,3.07.5.79,0,1.42-.08,1.9-.25.48-.16.84-.38,1.07-.65.23-.27.34-.58.34-.95,0-.46-.18-.82-.54-1.09-.36-.27-.84-.49-1.44-.66-.6-.17-1.25-.33-1.95-.49s-1.41-.34-2.12-.56c-.71-.22-1.37-.52-1.96-.88-.6-.37-1.07-.85-1.42-1.45-.35-.6-.53-1.34-.53-2.24,0-.98.26-1.88.79-2.69s1.32-1.46,2.39-1.94c1.07-.48,2.42-.72,4.04-.72,1.08,0,2.15.13,3.2.39,1.05.26,1.97.64,2.76,1.13l-1.25,2.99c-.77-.44-1.56-.77-2.38-.99-.82-.22-1.6-.33-2.36-.33s-1.42.09-1.89.26c-.47.17-.82.4-1.04.7-.22.29-.33.62-.33.98,0,.46.18.83.54,1.1.36.28.83.5,1.42.65.59.16,1.24.31,1.96.47.72.16,1.43.35,2.13.58.7.23,1.35.52,1.94.87.59.35,1.07.83,1.43,1.42.37.6.55,1.34.55,2.22,0,.96-.27,1.85-.8,2.65-.53.8-1.34,1.45-2.42,1.94-1.08.49-2.43.74-4.05.74ZM170.72,56.76v-23.06h2.45v23.06h-2.45Z"/>
      <path class="cls-2" d="M186.42,54.11c-1.19,0-2.38-.16-3.54-.48-1.17-.32-2.17-.78-3.01-1.39l1.57-3.02c.64.47,1.39.86,2.25,1.14.86.29,1.74.43,2.64.43,1,0,1.79-.2,2.37-.6.58-.4.87-.95.87-1.66,0-.46-.12-.85-.36-1.18s-.65-.58-1.23-.77c-.58-.19-1.39-.28-2.44-.28h-4.37l.86-9.67h10.5v3.19h-9.08l2.06-1.82-.64,6.89-2.04-1.79h3.63c1.7,0,3.07.23,4.1.69,1.03.46,1.79,1.09,2.27,1.9s.72,1.72.72,2.74-.25,1.93-.76,2.8c-.51.87-1.29,1.56-2.34,2.09-1.05.52-2.4.78-4.04.78Z"/>
      <path class="cls-2" d="M202.54,54.11c-1.41,0-2.66-.35-3.77-1.04-1.1-.7-1.98-1.7-2.62-3.02-.65-1.32-.97-2.92-.97-4.82s.32-3.5.97-4.82c.65-1.32,1.52-2.32,2.62-3.02,1.1-.7,2.36-1.04,3.77-1.04s2.69.35,3.79,1.04c1.1.7,1.98,1.7,2.62,3.02.65,1.32.97,2.92.97,4.82s-.32,3.5-.97,4.82c-.65,1.32-1.52,2.32-2.62,3.02-1.1.7-2.37,1.04-3.79,1.04ZM202.54,50.78c.67,0,1.26-.19,1.75-.58.5-.38.89-.99,1.18-1.8.29-.82.43-1.87.43-3.17s-.14-2.35-.43-3.16c-.29-.82-.68-1.42-1.18-1.8-.5-.38-1.08-.58-1.75-.58s-1.21.19-1.72.58c-.51.38-.91.99-1.2,1.8-.29.82-.44,1.87-.44,3.16s.15,2.35.44,3.17c.29.82.69,1.42,1.2,1.8.51.38,1.08.58,1.72.58Z"/>
    </g>
    <g>
      <path class="cls-2" d="M91.2,79.17v-13.08h1.24v2.87l-.13,1.91.18,1.93v6.37h-1.29ZM96.13,75.74c-.83,0-1.57-.19-2.24-.57-.67-.38-1.2-.93-1.59-1.66-.39-.72-.59-1.6-.59-2.65s.19-1.92.58-2.65c.39-.72.92-1.27,1.58-1.65s1.42-.56,2.26-.56c.91,0,1.72.2,2.45.61.72.41,1.29.98,1.7,1.71.41.73.62,1.58.62,2.54s-.21,1.82-.62,2.55-.98,1.3-1.7,1.71c-.72.41-1.54.62-2.45.62ZM96.03,74.59c.68,0,1.29-.16,1.82-.46.53-.31.96-.75,1.27-1.31.32-.56.47-1.22.47-1.96s-.16-1.39-.47-1.95c-.32-.56-.74-.99-1.27-1.31-.53-.31-1.14-.47-1.82-.47s-1.29.16-1.83.47c-.54.32-.96.75-1.27,1.31-.31.56-.46,1.21-.46,1.95s.15,1.39.46,1.96c.31.56.73,1,1.27,1.31.54.31,1.15.46,1.83.46Z"/>
      <path class="cls-2" d="M107.58,75.74c-.99,0-1.87-.21-2.62-.63-.75-.42-1.34-.99-1.76-1.73-.42-.73-.64-1.57-.64-2.52s.2-1.78.61-2.51.96-1.3,1.67-1.72c.71-.42,1.51-.63,2.39-.63s1.69.2,2.39.61,1.25.98,1.65,1.71c.4.73.6,1.58.6,2.54,0,.06,0,.12,0,.19,0,.07,0,.14,0,.21h-8.31v-.96h7.62l-.51.38c0-.69-.15-1.31-.45-1.85-.3-.54-.7-.96-1.21-1.26-.51-.3-1.1-.45-1.76-.45s-1.24.15-1.76.45c-.52.3-.93.73-1.22,1.27s-.44,1.17-.44,1.87v.2c0,.73.16,1.37.48,1.92.32.55.77.98,1.35,1.29.58.31,1.23.46,1.97.46.58,0,1.12-.1,1.63-.31.5-.21.94-.52,1.3-.95l.73.84c-.42.51-.96.9-1.59,1.16-.64.27-1.34.4-2.1.4Z"/>
      <path class="cls-2" d="M114.51,75.64v-9.55h1.24v2.6l-.13-.46c.27-.73.72-1.28,1.35-1.66.63-.38,1.41-.57,2.35-.57v1.26s-.1,0-.15,0c-.05,0-.1,0-.15,0-1.01,0-1.79.31-2.36.92-.57.61-.86,1.48-.86,2.61v4.88h-1.29Z"/>
      <path class="cls-2" d="M130.38,75.74c-.91,0-1.73-.21-2.45-.62-.72-.41-1.29-.98-1.7-1.71s-.62-1.58-.62-2.55.21-1.8.62-2.54c.41-.73.98-1.3,1.7-1.71.72-.41,1.54-.61,2.45-.61.85,0,1.6.19,2.26.56.66.38,1.18.92,1.57,1.65.39.72.58,1.6.58,2.65s-.2,1.93-.59,2.65c-.39.72-.92,1.27-1.58,1.66-.66.38-1.41.57-2.25.57ZM130.47,74.59c.68,0,1.29-.16,1.83-.46.54-.31.96-.75,1.27-1.31.31-.56.46-1.22.46-1.96s-.16-1.39-.46-1.95c-.31-.56-.73-.99-1.27-1.31-.54-.31-1.15-.47-1.83-.47s-1.27.16-1.8.47c-.53.32-.96.75-1.27,1.31-.32.56-.47,1.21-.47,1.95s.16,1.39.47,1.96c.32.56.74,1,1.27,1.31.53.31,1.13.46,1.8.46ZM134.01,79.17v-6.37l.18-1.93-.13-1.91v-2.87h1.24v13.08h-1.29Z"/>
      <path class="cls-2" d="M142.85,75.74c-.81,0-1.52-.15-2.13-.46-.61-.3-1.08-.76-1.41-1.36-.33-.61-.5-1.36-.5-2.27v-5.55h1.29v5.4c0,1.02.25,1.79.75,2.3.5.52,1.21.77,2.12.77.67,0,1.25-.14,1.74-.41s.87-.67,1.13-1.19.39-1.15.39-1.87v-5h1.29v9.55h-1.24v-2.62l.2.47c-.3.7-.77,1.25-1.41,1.65-.64.39-1.38.59-2.23.59Z"/>
      <path class="cls-2" d="M153.82,75.74c-.72,0-1.34-.12-1.87-.35-.53-.24-.93-.56-1.21-.98-.28-.42-.42-.9-.42-1.45,0-.5.12-.95.36-1.35.24-.41.62-.73,1.16-.98.54-.25,1.26-.37,2.17-.37h3.29v.96h-3.26c-.92,0-1.56.16-1.92.49-.36.33-.54.73-.54,1.22,0,.55.21.98.64,1.31s1.02.49,1.78.49,1.36-.17,1.88-.5c.53-.33.91-.82,1.16-1.45l.29.89c-.24.63-.66,1.13-1.26,1.51-.6.38-1.35.56-2.26.56ZM157.11,75.64v-2.11l-.05-.34v-3.53c0-.81-.23-1.44-.68-1.87-.45-.44-1.13-.66-2.03-.66-.62,0-1.21.1-1.76.31s-1.03.48-1.42.82l-.58-.96c.49-.41,1.07-.73,1.75-.96.68-.22,1.39-.34,2.15-.34,1.24,0,2.19.31,2.87.92.67.61,1.01,1.54,1.01,2.79v5.93h-1.24Z"/>
      <path class="cls-2" d="M161.86,75.64v-13.5h1.29v13.5h-1.29Z"/>
      <path class="cls-2" d="M167.41,63.99c-.27,0-.49-.09-.67-.27-.18-.18-.27-.4-.27-.66s.09-.47.27-.65c.18-.18.41-.26.67-.26s.49.08.67.25c.18.17.27.38.27.64,0,.27-.09.49-.26.67-.18.18-.4.27-.68.27ZM166.75,75.64v-9.55h1.29v9.55h-1.29Z"/>
      <path class="cls-2" d="M169.99,67.17v-1.07h5.91v1.07h-5.91ZM171.7,75.64v-10.75c0-.85.25-1.53.75-2.06.5-.52,1.21-.78,2.15-.78.36,0,.71.05,1.05.15.34.1.62.25.86.45l-.44.96c-.18-.16-.39-.28-.64-.35-.24-.08-.5-.12-.78-.12-.55,0-.96.15-1.25.46s-.44.75-.44,1.35v1.46l.04.6v8.64h-1.29ZM178.3,63.99c-.27,0-.49-.09-.67-.27-.18-.18-.27-.4-.27-.66s.09-.47.27-.65c.18-.18.41-.26.67-.26s.49.08.67.25c.18.17.27.38.27.64,0,.27-.09.49-.26.67-.18.18-.4.27-.68.27ZM177.65,75.64v-9.55h1.29v9.55h-1.29Z"/>
      <path class="cls-2" d="M186.62,75.74c-.99,0-1.87-.21-2.62-.63-.75-.42-1.34-.99-1.76-1.73-.42-.73-.64-1.57-.64-2.52s.2-1.78.61-2.51.96-1.3,1.67-1.72c.71-.42,1.51-.63,2.39-.63s1.69.2,2.39.61,1.25.98,1.65,1.71c.4.73.6,1.58.6,2.54,0,.06,0,.12,0,.19,0,.07,0,.14,0,.21h-8.31v-.96h7.62l-.51.38c0-.69-.15-1.31-.45-1.85-.3-.54-.7-.96-1.21-1.26-.51-.3-1.1-.45-1.76-.45s-1.24.15-1.76.45c-.52.3-.93.73-1.22,1.27s-.44,1.17-.44,1.87v.2c0,.73.16,1.37.48,1.92.32.55.77.98,1.35,1.29.58.31,1.23.46,1.97.46.58,0,1.12-.1,1.63-.31.5-.21.94-.52,1.3-.95l.73.84c-.42.51-.96.9-1.59,1.16-.64.27-1.34.4-2.1.4Z"/>
      <path class="cls-2" d="M197.35,75.74c-.91,0-1.73-.21-2.45-.62-.72-.41-1.29-.99-1.7-1.72s-.62-1.58-.62-2.54.21-1.82.62-2.55.98-1.29,1.7-1.7c.72-.41,1.54-.61,2.45-.61.84,0,1.58.19,2.25.56s1.19.92,1.58,1.65c.39.72.59,1.6.59,2.65s-.19,1.91-.58,2.64c-.39.73-.91,1.28-1.57,1.66-.66.38-1.42.57-2.26.57ZM197.44,74.59c.68,0,1.29-.16,1.83-.46.54-.31.96-.75,1.27-1.31.31-.56.46-1.22.46-1.96s-.16-1.41-.46-1.96c-.31-.56-.73-.99-1.27-1.3-.54-.31-1.15-.46-1.83-.46s-1.27.15-1.8.46c-.53.31-.96.74-1.27,1.3s-.47,1.21-.47,1.96.16,1.39.47,1.96c.32.56.74,1,1.27,1.31.53.31,1.13.46,1.8.46ZM201.04,75.64v-2.87l.13-1.93-.18-1.93v-6.77h1.29v13.5h-1.24Z"/>
      <path class="cls-2" d="M210.64,75.64v-9.55h1.24v2.58l-.2-.45c.29-.69.76-1.23,1.41-1.63.65-.39,1.42-.59,2.3-.59.93,0,1.73.23,2.38.7.66.47,1.08,1.17,1.27,2.1l-.51-.2c.28-.78.77-1.4,1.48-1.88.71-.48,1.56-.72,2.55-.72.78,0,1.45.15,2.03.45s1.02.75,1.35,1.35c.32.61.48,1.37.48,2.29v5.55h-1.29v-5.42c0-1.01-.24-1.77-.72-2.28-.48-.52-1.16-.77-2.03-.77-.65,0-1.22.14-1.7.41-.48.27-.85.67-1.11,1.18-.26.52-.39,1.14-.39,1.86v5.02h-1.29v-5.42c0-1.01-.24-1.77-.73-2.28-.49-.52-1.16-.77-2.04-.77-.64,0-1.21.14-1.69.41-.48.27-.86.67-1.12,1.18-.26.52-.39,1.14-.39,1.86v5.02h-1.29Z"/>
      <path class="cls-2" d="M234,75.74c-.99,0-1.87-.21-2.62-.63-.75-.42-1.34-.99-1.76-1.73-.42-.73-.64-1.57-.64-2.52s.2-1.78.61-2.51.96-1.3,1.67-1.72c.71-.42,1.51-.63,2.39-.63s1.69.2,2.39.61,1.25.98,1.65,1.71c.4.73.6,1.58.6,2.54,0,.06,0,.12,0,.19,0,.07,0,.14,0,.21h-8.31v-.96h7.62l-.51.38c0-.69-.15-1.31-.45-1.85-.3-.54-.7-.96-1.21-1.26-.51-.3-1.1-.45-1.76-.45s-1.24.15-1.76.45c-.52.3-.93.73-1.22,1.27s-.44,1.17-.44,1.87v.2c0,.73.16,1.37.48,1.92.32.55.77.98,1.35,1.29.58.31,1.23.46,1.97.46.58,0,1.12-.1,1.63-.31.5-.21.94-.52,1.3-.95l.73.84c-.42.51-.96.9-1.59,1.16-.64.27-1.34.4-2.1.4Z"/>
      <path class="cls-2" d="M244.98,75.74c-.99,0-1.87-.21-2.62-.63-.75-.42-1.34-.99-1.76-1.73-.42-.73-.64-1.57-.64-2.52s.2-1.78.61-2.51.96-1.3,1.67-1.72c.71-.42,1.51-.63,2.39-.63s1.69.2,2.39.61,1.25.98,1.65,1.71c.4.73.6,1.58.6,2.54,0,.06,0,.12,0,.19,0,.07,0,.14,0,.21h-8.31v-.96h7.62l-.51.38c0-.69-.15-1.31-.45-1.85-.3-.54-.7-.96-1.21-1.26-.51-.3-1.1-.45-1.76-.45s-1.24.15-1.76.45c-.52.3-.93.73-1.22,1.27s-.44,1.17-.44,1.87v.2c0,.73.16,1.37.48,1.92.32.55.77.98,1.35,1.29.58.31,1.23.46,1.97.46.58,0,1.12-.1,1.63-.31.5-.21.94-.52,1.3-.95l.73.84c-.42.51-.96.9-1.59,1.16-.64.27-1.34.4-2.1.4Z"/>
      <path class="cls-2" d="M250.42,67.17v-1.07h5.91v1.07h-5.91ZM254.93,75.74c-.9,0-1.59-.24-2.07-.73s-.73-1.17-.73-2.06v-8.97h1.29v8.89c0,.56.14.99.43,1.29.28.3.69.46,1.23.46.57,0,1.04-.16,1.42-.49l.45.93c-.25.23-.56.4-.92.51-.36.11-.72.16-1.1.16Z"/>
      <path class="cls-2" d="M259.95,63.99c-.27,0-.49-.09-.67-.27-.18-.18-.27-.4-.27-.66s.09-.47.27-.65c.18-.18.41-.26.67-.26s.49.08.67.25c.18.17.27.38.27.64,0,.27-.09.49-.26.67-.18.18-.4.27-.68.27ZM259.3,75.64v-9.55h1.29v9.55h-1.29Z"/>
      <path class="cls-2" d="M264.19,75.64v-9.55h1.24v2.62l-.2-.49c.3-.69.79-1.23,1.46-1.63.67-.39,1.46-.59,2.38-.59.78,0,1.46.15,2.05.45s1.05.75,1.38,1.35c.33.61.5,1.37.5,2.29v5.55h-1.29v-5.42c0-1.01-.25-1.77-.75-2.28-.5-.52-1.21-.77-2.12-.77-.68,0-1.27.14-1.77.41-.5.27-.89.67-1.17,1.18-.27.52-.41,1.14-.41,1.86v5.02h-1.29Z"/>
      <path class="cls-2" d="M280.33,75.28c-.91,0-1.73-.2-2.46-.59-.73-.39-1.3-.94-1.72-1.65-.42-.7-.63-1.51-.63-2.42s.21-1.71.63-2.41c.42-.7.99-1.24,1.72-1.63.73-.39,1.55-.58,2.46-.58.85,0,1.61.18,2.29.53.68.35,1.22.87,1.62,1.56.4.69.6,1.53.6,2.53s-.2,1.84-.6,2.53c-.4.69-.94,1.22-1.62,1.58-.68.36-1.44.54-2.29.54ZM280.56,79.26c-.87,0-1.71-.13-2.51-.38-.8-.25-1.45-.62-1.95-1.09l.65-.98c.45.4,1,.72,1.67.96.66.24,1.36.35,2.1.35,1.21,0,2.1-.28,2.67-.85.57-.56.85-1.44.85-2.63v-2.38l.18-1.64-.13-1.64v-2.89h1.24v8.39c0,1.65-.4,2.86-1.21,3.63-.81.77-2,1.16-3.57,1.16ZM280.45,74.14c.7,0,1.33-.15,1.87-.45s.98-.71,1.29-1.24.47-1.14.47-1.83-.16-1.3-.47-1.82-.75-.93-1.29-1.23c-.55-.3-1.17-.45-1.87-.45s-1.31.15-1.86.45c-.55.3-.98.71-1.29,1.23-.31.52-.46,1.13-.46,1.82s.15,1.3.46,1.83c.31.53.74.94,1.29,1.24s1.17.45,1.86.45Z"/>
    </g>
    <g>
      <path class="cls-2" d="M60.56,77.79c-10.73,0-19.46-8.73-19.46-19.46s8.73-19.46,19.46-19.46,19.46,8.73,19.46,19.46-8.73,19.46-19.46,19.46M60.56,40c-10.11,0-18.33,8.22-18.33,18.33s8.22,18.33,18.33,18.33,18.33-8.22,18.33-18.33-8.23-18.33-18.33-18.33"/>
      <path class="cls-2" d="M51.33,70.86c-.35,0-.66-.13-.92-.39-.26-.26-.39-.57-.39-.92v-3.29c0-1.88.58-3.54,1.75-4.98,1.17-1.44,2.67-2.36,4.51-2.76-.84.58-1.48,1.32-1.94,2.21-.46.89-.69,1.84-.69,2.87v5.95c0,.23.03.46.09.69.06.23.17.44.31.63h-2.73ZM55.94,70.86c-.36,0-.66-.13-.92-.39-.26-.26-.39-.57-.39-.92v-5.95c0-1.46.52-2.7,1.55-3.73,1.03-1.02,2.28-1.53,3.74-1.53h5.92c1.46,0,2.7.51,3.73,1.53,1.02,1.02,1.53,2.27,1.53,3.73v2c0,1.46-.51,2.7-1.53,3.73-1.02,1.02-2.26,1.54-3.73,1.54h-9.9ZM60.57,55.7c-1.38,0-2.55-.48-3.51-1.44s-1.44-2.13-1.44-3.51.48-2.55,1.44-3.51c.96-.96,2.13-1.44,3.51-1.44s2.55.48,3.51,1.44c.96.96,1.44,2.13,1.44,3.51s-.48,2.55-1.44,3.51-2.13,1.44-3.51,1.44"/>
    </g>
  </g>
</svg>