<?xml version="1.0" encoding="UTF-8"?>
<svg id="Layer_2" data-name="Layer 2" xmlns="http://www.w3.org/2000/svg" viewBox="0 0 39.45 39.45">
  <defs>
    <style>
      .cls-1 {
        fill: #5f60b3;
      }
    </style>
  </defs>
  <g id="Layer_1-2" data-name="Layer 1">
    <path class="cls-1" d="M17.92,39.45v-3.6c-3.75-.42-6.97-1.97-9.66-4.66-2.69-2.69-4.24-5.91-4.66-9.66H0v-3.6h3.6c.42-3.75,1.97-6.97,4.66-9.66,2.69-2.69,5.91-4.24,9.66-4.66V0h3.6v3.6c3.75.42,6.97,1.97,9.66,4.66,2.69,2.69,4.24,5.91,4.66,9.66h3.6v3.6h-3.6c-.42,3.75-1.97,6.97-4.66,9.66-2.69,2.69-5.91,4.24-9.66,4.66v3.6h-3.6ZM19.73,32.34c3.48,0,6.46-1.23,8.92-3.69,2.46-2.46,3.69-5.43,3.69-8.92s-1.23-6.46-3.69-8.92c-2.46-2.46-5.43-3.69-8.92-3.69s-6.46,1.23-8.92,3.69c-2.46,2.46-3.69,5.43-3.69,8.92s1.23,6.46,3.69,8.92c2.46,2.46,5.43,3.69,8.92,3.69M19.73,26.93c-1.98,0-3.68-.71-5.09-2.12-1.41-1.41-2.12-3.11-2.12-5.09s.71-3.68,2.12-5.09c1.41-1.41,3.11-2.12,5.09-2.12s3.68.71,5.09,2.12c1.41,1.41,2.12,3.11,2.12,5.09s-.71,3.68-2.12,5.09c-1.41,1.41-3.11,2.12-5.09,2.12M19.73,23.33c.99,0,1.84-.35,2.54-1.06.71-.71,1.06-1.55,1.06-2.54s-.35-1.84-1.06-2.54c-.71-.71-1.55-1.06-2.54-1.06s-1.84.35-2.54,1.06c-.71.71-1.06,1.55-1.06,2.54s.35,1.84,1.06,2.54c.71.71,1.55,1.06,2.54,1.06"/>
  </g>
</svg>