<?xml version="1.0" encoding="UTF-8"?>
<svg id="Layer_2" data-name="Layer 2" xmlns="http://www.w3.org/2000/svg" viewBox="0 0 39.63 34.23">
  <defs>
    <style>
      .cls-1 {
        fill: #5f60b3;
      }
    </style>
  </defs>
  <g id="Layer_1-2" data-name="Layer 1">
    <path class="cls-1" d="M5.4,23.42c-1.5,0-2.78-.53-3.83-1.58-1.05-1.05-1.58-2.33-1.58-3.83s.52-2.78,1.58-3.83c1.05-1.05,2.33-1.58,3.83-1.58v-3.6c0-.99.35-1.84,1.06-2.54s1.55-1.06,2.54-1.06h5.4c0-1.5.53-2.78,1.58-3.83,1.05-1.05,2.33-1.58,3.83-1.58s2.78.53,3.83,1.58c1.05,1.05,1.58,2.33,1.58,3.83h5.4c.99,0,1.84.35,2.54,1.06.71.71,1.06,1.55,1.06,2.54v3.6c1.5,0,2.78.52,3.83,1.58,1.05,1.05,1.58,2.33,1.58,3.83s-.52,2.78-1.58,3.83c-1.05,1.05-2.33,1.58-3.83,1.58v7.21c0,.99-.35,1.84-1.06,2.54-.71.71-1.55,1.06-2.54,1.06H9.01c-.99,0-1.84-.35-2.54-1.06-.71-.71-1.06-1.55-1.06-2.54v-7.21ZM14.41,19.82c.75,0,1.39-.26,1.91-.79.53-.53.79-1.16.79-1.91s-.26-1.39-.79-1.91c-.53-.53-1.16-.79-1.91-.79s-1.39.26-1.91.79c-.53.52-.79,1.16-.79,1.91s.26,1.39.79,1.91c.53.52,1.16.79,1.91.79M25.22,19.82c.75,0,1.39-.26,1.91-.79.52-.53.79-1.16.79-1.91s-.26-1.39-.79-1.91c-.53-.53-1.16-.79-1.91-.79s-1.39.26-1.91.79c-.53.52-.79,1.16-.79,1.91s.26,1.39.79,1.91c.52.52,1.16.79,1.91.79M12.61,27.02h14.41v-3.6h-14.41v3.6ZM9.01,30.63h21.62V9.01H9.01v21.62Z"/>
  </g>
</svg>