<?xml version="1.0" encoding="UTF-8"?>
<svg id="Layer_2" data-name="Layer 2" xmlns="http://www.w3.org/2000/svg" viewBox="0 0 35.76 34.23">
  <defs>
    <style>
      .cls-1 {
        fill: #5f60b3;
      }
    </style>
  </defs>
  <g id="Layer_1-2" data-name="Layer 1">
    <path class="cls-1" d="M0,28.82v-3.6h4.95l-.72-.63c-1.56-1.38-2.66-2.96-3.29-4.73-.63-1.77-.95-3.56-.95-5.36,0-3.33,1-6.3,2.99-8.9C4.99,3.01,7.6,1.29,10.81.45v3.78c-2.16.78-3.9,2.11-5.22,3.99-1.32,1.88-1.98,3.97-1.98,6.28,0,1.35.26,2.66.77,3.94.51,1.28,1.31,2.45,2.39,3.54l.45.45v-4.41h3.6v10.81H0ZM32.29,12.61h-3.65c-.15-1.05-.47-2.06-.97-3.02-.5-.96-1.16-1.88-2-2.75l-.45-.45v4.41h-3.6V0h10.81v3.6h-4.95l.72.63c1.23,1.26,2.18,2.6,2.84,4.01.66,1.41,1.08,2.87,1.26,4.37M25.22,34.23l-.54-2.7c-.36-.15-.7-.31-1.01-.47-.31-.17-.64-.37-.97-.61l-2.61.81-1.8-3.06,2.07-1.8c-.06-.42-.09-.81-.09-1.17s.03-.75.09-1.17l-2.07-1.8,1.8-3.06,2.61.81c.33-.24.65-.44.97-.61.32-.17.65-.32,1.01-.47l.54-2.7h3.6l.54,2.7c.36.15.7.31,1.01.5.31.18.64.41.97.68l2.61-.9,1.8,3.15-2.07,1.8c.06.36.09.74.09,1.13s-.03.77-.09,1.13l2.07,1.8-1.8,3.06-2.61-.81c-.33.24-.65.44-.97.61-.32.17-.65.32-1.01.47l-.54,2.7h-3.6ZM27.02,28.82c.99,0,1.84-.35,2.54-1.06.71-.71,1.06-1.55,1.06-2.54s-.35-1.84-1.06-2.54c-.71-.71-1.55-1.06-2.54-1.06s-1.84.35-2.54,1.06c-.71.71-1.06,1.55-1.06,2.54s.35,1.84,1.06,2.54c.71.71,1.55,1.06,2.54,1.06"/>
  </g>
</svg>