<?xml version="1.0" encoding="UTF-8"?>
<svg id="Layer_2" data-name="Layer 2" xmlns="http://www.w3.org/2000/svg" xmlns:xlink="http://www.w3.org/1999/xlink" viewBox="0 0 209.74 64.93">
  <defs>
    <style>
      .cls-1 {
        fill: #5f60b3;
      }

      .cls-2 {
        letter-spacing: .01em;
      }

      .cls-3 {
        letter-spacing: 0em;
      }

      .cls-4 {
        fill: #2f333f;
        font-family: Montserrat-Regular, Montserrat;
        font-size: 14.6px;
        font-variation-settings: 'wght' 400;
      }

      .cls-5 {
        fill: url(#linear-gradient);
        opacity: .7;
      }
    </style>
    <linearGradient id="linear-gradient" x1="104.87" y1="4.07" x2="104.87" y2="64.94" gradientUnits="userSpaceOnUse">
      <stop offset="0" stop-color="#fff" stop-opacity="0"/>
      <stop offset="1" stop-color="#d7eff9"/>
    </linearGradient>
  </defs>
  <g id="Layer_1-2" data-name="Layer 1">
    <g>
      <rect class="cls-5" width="209.74" height="64.93" rx="6.85" ry="6.85"/>
      <text class="cls-4" transform="translate(80.86 37.25)"><tspan x="0" y="0">IT Se</tspan><tspan class="cls-2" x="34.42" y="0">r</tspan><tspan x="40.49" y="0">vi</tspan><tspan class="cls-3" x="52.33" y="0">c</tspan><tspan x="60.44" y="0">es</tspan></text>
      <path class="cls-1" d="M45.59,30.27l9.6-15.7,9.6,15.7h-19.19ZM64.78,49.47c-2.18,0-4.03-.76-5.56-2.29-1.53-1.53-2.29-3.38-2.29-5.56s.76-4.03,2.29-5.56c1.53-1.53,3.38-2.29,5.56-2.29s4.04.76,5.56,2.29c1.53,1.53,2.29,3.38,2.29,5.56s-.76,4.04-2.29,5.56c-1.53,1.53-3.38,2.29-5.56,2.29M39.48,34.63h13.96v13.96h-13.96v-13.96ZM64.78,45.98c1.22,0,2.25-.42,3.1-1.26.84-.84,1.26-1.88,1.26-3.1s-.42-2.25-1.26-3.1c-.84-.84-1.88-1.26-3.1-1.26s-2.25.42-3.1,1.26c-.84.84-1.26,1.88-1.26,3.1s.42,2.25,1.26,3.1c.84.84,1.88,1.26,3.1,1.26M42.97,45.1h6.98v-6.98h-6.98v6.98ZM51.78,26.78h6.8l-3.4-5.5-3.4,5.5Z"/>
    </g>
  </g>
</svg>