<?xml version="1.0" encoding="UTF-8"?>
<svg id="Layer_2" data-name="Layer 2" xmlns="http://www.w3.org/2000/svg" xmlns:xlink="http://www.w3.org/1999/xlink" viewBox="0 0 209.74 64.93">
  <defs>
    <style>
      .cls-1 {
        fill: #5f60b3;
      }

      .cls-2 {
        letter-spacing: 0em;
      }

      .cls-3 {
        letter-spacing: 0em;
      }

      .cls-4 {
        letter-spacing: 0em;
      }

      .cls-5 {
        letter-spacing: 0em;
      }

      .cls-6 {
        letter-spacing: 0em;
      }

      .cls-7 {
        letter-spacing: -.02em;
      }

      .cls-8 {
        letter-spacing: 0em;
      }

      .cls-9 {
        fill: #2f333f;
        font-family: Montserrat-Regular, Montserrat;
        font-size: 14.6px;
        font-variation-settings: 'wght' 400;
      }

      .cls-10 {
        fill: url(#linear-gradient);
        opacity: .7;
      }
    </style>
    <linearGradient id="linear-gradient" x1="104.87" y1="-1.73" x2="104.87" y2="58.37" gradientUnits="userSpaceOnUse">
      <stop offset="0" stop-color="#fff" stop-opacity="0"/>
      <stop offset="1" stop-color="#d7eff9"/>
    </linearGradient>
  </defs>
  <g id="Layer_1-2" data-name="Layer 1">
    <g>
      <rect class="cls-10" width="209.74" height="64.93" rx="6.85" ry="6.85"/>
      <text class="cls-9" transform="translate(96.23 26.62)"><tspan x="0" y="0">Ma</tspan><tspan class="cls-5" x="22.56" y="0">r</tspan><tspan class="cls-7" x="28.36" y="0">k</tspan><tspan class="cls-2" x="36.77" y="0">eti</tspan><tspan class="cls-4" x="55.44" y="0">n</tspan><tspan class="cls-3" x="65.33" y="0">g</tspan><tspan class="cls-8" x="0" y="17.52">A</tspan><tspan x="10.4" y="17.52">ge</tspan><tspan class="cls-4" x="29.22" y="17.52">n</tspan><tspan class="cls-6" x="39.1" y="17.52">c</tspan><tspan x="47.25" y="17.52">ies</tspan></text>
      <path class="cls-1" d="M78.28,30.35h8.52v4.26h-8.52v-4.26ZM80.83,49.51l-6.81-5.11,2.55-3.41,6.81,5.11-2.55,3.41ZM76.57,23.96l-2.55-3.41,6.81-5.11,2.55,3.41-6.81,5.11ZM50.6,47.38v-8.52h-2.13c-1.17,0-2.17-.42-3.01-1.25-.83-.83-1.25-1.84-1.25-3.01v-4.26c0-1.17.42-2.17,1.25-3.01.83-.83,1.84-1.25,3.01-1.25h8.52l10.64-6.39v25.55l-10.64-6.39h-2.13v8.52h-4.26ZM63.37,37.69v-10.43l-5.22,3.09h-9.69v4.26h9.69l5.22,3.09ZM69.76,39.61v-14.26c.96.85,1.73,1.89,2.31,3.11.59,1.22.88,2.56.88,4.02s-.29,2.79-.88,4.02c-.58,1.23-1.36,2.26-2.31,3.11"/>
    </g>
  </g>
</svg>