<?xml version="1.0" encoding="UTF-8"?>
<svg id="Layer_2" data-name="Layer 2" xmlns="http://www.w3.org/2000/svg" xmlns:xlink="http://www.w3.org/1999/xlink" viewBox="0 0 209.74 64.93">
  <defs>
    <style>
      .cls-1 {
        fill: #5f60b3;
      }

      .cls-2 {
        letter-spacing: 0em;
      }

      .cls-3 {
        fill: #2f333f;
        font-family: Montserrat-Regular, Montserrat;
        font-size: 14.6px;
        font-variation-settings: 'wght' 400;
      }

      .cls-4 {
        fill: url(#linear-gradient);
        opacity: .7;
      }
    </style>
    <linearGradient id="linear-gradient" x1="104.87" y1="-1.73" x2="104.87" y2="58.37" gradientUnits="userSpaceOnUse">
      <stop offset="0" stop-color="#fff" stop-opacity="0"/>
      <stop offset="1" stop-color="#d7eff9"/>
    </linearGradient>
  </defs>
  <g id="Layer_1-2" data-name="Layer 1">
    <g>
      <rect class="cls-4" width="209.74" height="64.93" rx="6.85" ry="6.85"/>
      <text class="cls-3" transform="translate(86.4 35.38)"><tspan class="cls-2" x="0" y="0">E</tspan><tspan x="9.71" y="0">ducation</tspan></text>
      <path class="cls-1" d="M64.48,28.81v-2.97c.96-.41,1.94-.71,2.94-.92,1-.2,2.06-.31,3.16-.31.76,0,1.5.06,2.22.18s1.44.26,2.14.44v2.79c-.7-.26-1.4-.46-2.11-.59-.71-.13-1.46-.2-2.25-.2-1.11,0-2.17.14-3.18.41-1.02.28-1.99.66-2.92,1.16M64.48,38.41v-2.97c.96-.41,1.94-.71,2.94-.92,1-.2,2.06-.3,3.16-.3.76,0,1.5.06,2.22.17s1.44.26,2.14.44v2.79c-.7-.26-1.4-.46-2.11-.59-.71-.13-1.46-.2-2.25-.2-1.11,0-2.17.13-3.18.39-1.02.26-1.99.65-2.92,1.18M64.48,33.61v-2.97c.96-.41,1.94-.71,2.94-.92,1-.2,2.06-.31,3.16-.31.76,0,1.5.06,2.22.18.73.12,1.44.26,2.14.44v2.79c-.7-.26-1.4-.46-2.11-.59-.71-.13-1.46-.2-2.25-.2-1.11,0-2.17.14-3.18.42-1.02.28-1.99.66-2.92,1.16M51.39,39.46c1.37,0,2.7.15,3.99.46,1.29.31,2.58.76,3.86,1.37v-17.19c-1.19-.7-2.46-1.22-3.79-1.57s-2.69-.52-4.06-.52c-1.05,0-2.09.1-3.12.31-1.03.2-2.03.51-2.99.92v17.27c1.02-.35,2.03-.61,3.03-.78,1-.17,2.03-.26,3.08-.26M62.73,41.29c1.28-.61,2.57-1.07,3.86-1.37,1.29-.31,2.62-.46,3.99-.46,1.05,0,2.07.09,3.08.26,1,.17,2.01.44,3.03.78v-17.27c-.96-.41-1.96-.71-2.99-.92-1.03-.2-2.07-.31-3.12-.31-1.37,0-2.72.18-4.06.52s-2.6.87-3.79,1.57v17.19ZM60.99,46.44c-1.4-1.1-2.91-1.96-4.54-2.57-1.63-.61-3.32-.92-5.06-.92-1.22,0-2.42.16-3.6.48-1.18.32-2.3.77-3.38,1.35-.61.32-1.2.31-1.77-.04-.57-.35-.85-.86-.85-1.53v-21.03c0-.32.08-.63.24-.92.16-.29.4-.51.72-.65,1.34-.7,2.73-1.22,4.19-1.57,1.45-.35,2.94-.52,4.45-.52,1.69,0,3.34.22,4.95.65,1.61.44,3.16,1.09,4.65,1.96,1.48-.87,3.03-1.53,4.65-1.96,1.61-.44,3.26-.65,4.95-.65,1.51,0,3,.18,4.45.52,1.45.35,2.85.87,4.19,1.57.32.15.56.36.72.65.16.29.24.6.24.92v21.03c0,.67-.28,1.18-.85,1.53-.57.35-1.16.36-1.77.04-1.08-.58-2.2-1.03-3.38-1.35-1.18-.32-2.38-.48-3.6-.48-1.74,0-3.43.31-5.06.92-1.63.61-3.14,1.47-4.54,2.57"/>
    </g>
  </g>
</svg>